<?xml version="1.0" encoding="utf-8"?>
<!-- Generator: Adobe Illustrator 26.0.3, SVG Export Plug-In . SVG Version: 6.00 Build 0)  -->
<svg version="1.1" id="White_Logo__x2B__Wordmark" xmlns="http://www.w3.org/2000/svg" xmlns:xlink="http://www.w3.org/1999/xlink"
	 x="0px" y="0px" viewBox="0 0 529.8 124" style="enable-background:new 0 0 529.8 124;" xml:space="preserve">
<style type="text/css">
	.st0{fill:#FFFFFF;}
	.st1{fill:url(#SVGID_1_);}
	.st2{fill:url(#SVGID_00000144324984306764166160000015677202574697510818_);}
	.st3{fill:url(#SVGID_00000047771408865712549350000007016184920326903178_);}
	.st4{fill:url(#SVGID_00000127757744371171538890000003690143205627641766_);}
	.st5{fill:url(#SVGID_00000150795192864087118510000001541762335772644516_);}
	.st6{fill:url(#SVGID_00000181086771094068083920000002498079403137870012_);}
</style>
<g>
	<g>
		<g>
			<path class="st0" d="M186.4,80.1c-0.5-0.7-1.1-1.3-1.8-1.8c-1.1-0.8-2.5-1.3-4.1-1.3c-3.7,0-7.1,2.8-7.1,7.3
				c0,4.7,3.5,7.4,7.1,7.4c1.8,0,3.3-0.5,4.5-1.4c1.2-0.9,2-2.1,2.3-3.5h-8.3v-2.5h11.9c0,1.2-0.2,2.9-0.9,4.3
				c-1.8,3.8-5.8,5.8-9.4,5.8c-5.7,0-10.2-4.4-10.2-10.1c0-5.8,4.6-10,10.2-10c4.2,0,7.9,2.5,9.3,5.9H186.4z"/>
		</g>
		<g>
			<path class="st0" d="M198.8,74.6h10.8v2.7h-7.7v5.5h7.6v2.7h-7.6v5.7h7.7V94h-10.8V74.6z"/>
		</g>
		<g>
			<path class="st0" d="M231,89.3L231,74.6h3V94h-2.8L221,79.2l0.1,14.8h-3V74.6h2.9L231,89.3z"/>
		</g>
		<g>
			<path class="st0" d="M241.2,84.4c0-6.1,4.7-10.2,10.1-10.2c5.8,0,10.2,4.5,10.2,10c0,5.6-4.4,10-10.2,10
				C245.4,94.3,241.2,89.8,241.2,84.4L241.2,84.4z M244.2,84.3c0,4,3,7.3,7.1,7.3c4.2,0,7-3.5,7-7.3c0-3.8-2.8-7.4-7-7.4
				C247.1,77,244.2,80.4,244.2,84.3L244.2,84.3z"/>
		</g>
		<g>
			<path class="st0" d="M268.6,94V74.6h4.2l6,15l5.9-15h4.2V94h-2.9l0.1-16.3L279.8,94h-2l-6.4-16.3l0.1,16.3H268.6z"/>
		</g>
		<g>
			<path class="st0" d="M298,74.6h3.1V94H298V74.6z"/>
		</g>
		<g>
			<path class="st0" d="M328.5,88.1c-1.2,3.5-4.8,6.3-9.2,6.3c-5.8,0-10.1-4.6-10.1-10.1c0-5.3,4.1-10,10.1-10
				c5.2,0,8.3,3.7,9.2,6.4h-3.3c-0.6-1.3-2.6-3.6-6-3.6c-4.1,0-7,3.4-7,7.3c0,4,2.9,7.4,7,7.4c3.7,0,5.5-2.8,6-3.5H328.5z"/>
		</g>
		<g>
			<path class="st0" d="M338.6,88.2c0.2,2.9,2.3,3.5,3.3,3.5c1.7,0,3.2-1.4,3.2-3.1c0-2.1-1.8-2.6-4.3-3.6c-1.5-0.5-4.9-1.6-4.9-5.3
				c0-3.6,3.1-5.6,6.1-5.6c2.5,0,5.6,1.4,5.8,5.3h-3c-0.2-1-0.7-2.7-2.9-2.7c-1.6,0-2.9,1.1-2.9,2.7c0,1.9,1.4,2.4,4.6,3.5
				c2.4,1,4.7,2.2,4.7,5.4c0,3.1-2.1,5.9-6.3,5.9c-3.8,0-6.3-2.4-6.4-6.1H338.6z"/>
		</g>
	</g>
	<g>
		<g>
			<g>
				<path class="st0" d="M174.1,46.7c0.3,3.5,2.7,4.2,4,4.2c2.1,0,3.9-1.7,3.9-3.8c0-2.6-2.2-3.2-5.3-4.3c-1.9-0.6-6-2-6-6.4
					c0-4.4,3.7-6.8,7.4-6.8c3,0,6.8,1.7,7.1,6.5h-3.7c-0.3-1.3-0.8-3.3-3.5-3.3c-1.9,0-3.6,1.3-3.6,3.3c0,2.3,1.8,2.9,5.6,4.3
					c2.9,1.2,5.7,2.7,5.7,6.6c0,3.8-2.6,7.1-7.6,7.1c-4.7,0-7.7-2.9-7.8-7.4H174.1z"/>
			</g>
		</g>
		<g>
			<g>
				<path class="st0" d="M216.2,30.1h3.8v23.6h-3.8V30.1z"/>
			</g>
		</g>
		<g>
			<g>
				<path class="st0" d="M271,48.1l-0.1-18h3.6v23.6h-3.4l-12.3-18l0.1,18h-3.6V30.1h3.5L271,48.1z"/>
			</g>
		</g>
		<g>
			<g>
				<path class="st0" d="M325.4,36.8c-0.6-0.9-1.3-1.6-2.2-2.2c-1.4-1-3-1.6-5-1.6c-4.5,0-8.6,3.4-8.6,8.9c0,5.7,4.2,9,8.6,9
					c2.2,0,4.1-0.7,5.5-1.8c1.4-1.1,2.4-2.6,2.8-4.2h-10.2v-3.1h14.5c0,1.5-0.3,3.5-1.1,5.3c-2.2,4.7-7,7-11.5,7
					c-7,0-12.4-5.4-12.4-12.3c0-7,5.6-12.2,12.4-12.2c5.1,0,9.6,3.1,11.3,7.1H325.4z"/>
			</g>
		</g>
		<g>
			<g>
				<path class="st0" d="M366.7,30.1v14.7c0,1.5,0,2.7,0.9,4.1c0.7,1.1,2,1.9,3.6,1.9c1.6,0,2.9-0.7,3.6-1.8
					c0.9-1.3,0.9-2.6,0.9-4.2V30.1h3.7v14.7c0,3.1-0.5,5.5-2.6,7.2c-1.4,1.3-3.3,2.1-5.6,2.1c-1.7,0-4.1-0.5-5.7-2
					c-2.3-2.1-2.6-4.4-2.6-7.3V30.1H366.7z"/>
			</g>
		</g>
		<g>
			<g>
				<path class="st0" d="M417.1,30.1h3.8v20.3h8.3v3.3h-12.1V30.1z"/>
			</g>
		</g>
		<g>
			<g>
				<path class="st0" d="M462.8,53.7h-4.1l9.7-23.6h3.4l9.5,23.6h-4.1l-2.2-5.6h-10.1L462.8,53.7z M469.9,34.5l-4,10.6h8L469.9,34.5
					z"/>
			</g>
		</g>
		<g>
			<g>
				<path class="st0" d="M512.3,30.1h6.7c3.7,0,5.6,0.5,6.9,1.4c1.9,1.3,3.1,3.7,3.1,6.4c0,1.7-0.5,3.3-1.3,4.5
					c-1.2,1.7-2.7,2.3-4.6,2.6l5.6,8.8h-4l-6.5-10.7h0.8c1.6,0,3.6-0.1,4.7-1c1.1-1,1.6-2.3,1.6-3.9c0-1.6-0.8-3.2-2-4
					c-1-0.6-2.3-0.8-4-0.8h-3.2v20.3h-3.8V30.1z"/>
			</g>
		</g>
	</g>
	<g>
		<g>
			<linearGradient id="SVGID_1_" gradientUnits="userSpaceOnUse" x1="0.1927" y1="53.8182" x2="102.7558" y2="53.8182">
				<stop  offset="5.128019e-03" style="stop-color:#FFFFFF"/>
				<stop  offset="0.8026" style="stop-color:#FFFFFF;stop-opacity:5.000000e-02"/>
				<stop  offset="1" style="stop-color:#FFFFFF;stop-opacity:0"/>
			</linearGradient>
			<path class="st1" d="M2.4,62c0-32.4,26.4-58.8,58.8-58.8c15.5,0,29.6,6,40.1,15.8l1.5-1.6C91.9,7.2,77.3,1,61.2,1
				c-33.7,0-61,27.3-61,61c0,17.6,7.5,33.5,19.4,44.6l1.5-1.6C9.6,94.3,2.4,79,2.4,62z"/>
			
				<linearGradient id="SVGID_00000085237475897980972420000006921607700096799877_" gradientUnits="userSpaceOnUse" x1="9.4653" y1="55.0618" x2="96.4388" y2="55.0618">
				<stop  offset="5.128019e-03" style="stop-color:#FFFFFF"/>
				<stop  offset="0.8026" style="stop-color:#FFFFFF;stop-opacity:5.000000e-02"/>
				<stop  offset="1" style="stop-color:#FFFFFF;stop-opacity:0"/>
			</linearGradient>
			<path style="fill:url(#SVGID_00000085237475897980972420000006921607700096799877_);" d="M11.6,62c0-27.3,22.2-49.6,49.6-49.6
				c13,0,24.9,5.1,33.8,13.3l1.5-1.6c-9.2-8.6-21.6-13.9-35.2-13.9C32.6,10.3,9.5,33.4,9.5,62c0,14.9,6.3,28.4,16.5,37.9l1.5-1.6
				C17.7,89.2,11.6,76.3,11.6,62z"/>
			
				<linearGradient id="SVGID_00000091729740208045522880000001178536128437880709_" gradientUnits="userSpaceOnUse" x1="19.958" y1="56.4691" x2="89.2908" y2="56.4691">
				<stop  offset="5.128019e-03" style="stop-color:#FFFFFF"/>
				<stop  offset="0.8026" style="stop-color:#FFFFFF;stop-opacity:5.000000e-02"/>
				<stop  offset="1" style="stop-color:#FFFFFF;stop-opacity:0"/>
			</linearGradient>
			<path style="fill:url(#SVGID_00000091729740208045522880000001178536128437880709_);" d="M22.1,62c0-21.5,17.5-39.1,39.1-39.1
				c10.3,0,19.6,4,26.6,10.5l1.5-1.6C81.9,25,72.1,20.8,61.2,20.8C38.4,20.8,20,39.2,20,62c0,11.9,5.1,22.6,13.1,30.2l1.5-1.6
				C26.9,83.4,22.1,73.3,22.1,62z"/>
		</g>
		<g>
			
				<linearGradient id="SVGID_00000054971360540196953270000013143337945896807326_" gradientUnits="userSpaceOnUse" x1="19.6381" y1="70.1818" x2="122.201" y2="70.1818">
				<stop  offset="0" style="stop-color:#FFFFFF;stop-opacity:0"/>
				<stop  offset="0.1974" style="stop-color:#FFFFFF;stop-opacity:5.000000e-02"/>
				<stop  offset="0.9949" style="stop-color:#FFFFFF"/>
			</linearGradient>
			<path style="fill:url(#SVGID_00000054971360540196953270000013143337945896807326_);" d="M102.8,17.4l-1.5,1.6
				C112.8,29.7,120,45,120,62c0,32.4-26.4,58.8-58.8,58.8c-15.5,0-29.6-6-40.1-15.8l-1.5,1.6C30.5,116.8,45.1,123,61.2,123
				c33.7,0,61-27.3,61-61C122.2,44.4,114.7,28.5,102.8,17.4z"/>
			
				<linearGradient id="SVGID_00000098913222527153939880000017737765954751693715_" gradientUnits="userSpaceOnUse" x1="25.9551" y1="68.9382" x2="112.9284" y2="68.9382">
				<stop  offset="0" style="stop-color:#FFFFFF;stop-opacity:0"/>
				<stop  offset="0.1974" style="stop-color:#FFFFFF;stop-opacity:5.000000e-02"/>
				<stop  offset="0.9949" style="stop-color:#FFFFFF"/>
			</linearGradient>
			<path style="fill:url(#SVGID_00000098913222527153939880000017737765954751693715_);" d="M112.9,62c0-14.9-6.3-28.4-16.5-37.9
				l-1.5,1.6c9.7,9.1,15.8,22,15.8,36.3c0,27.3-22.2,49.6-49.6,49.6c-13,0-24.9-5.1-33.8-13.3L26,99.9c9.2,8.6,21.6,13.9,35.2,13.9
				C89.8,113.7,112.9,90.6,112.9,62z"/>
			
				<linearGradient id="SVGID_00000113352496643453959100000008922460260880490131_" gradientUnits="userSpaceOnUse" x1="33.1031" y1="67.5309" x2="102.4357" y2="67.5309">
				<stop  offset="0" style="stop-color:#FFFFFF;stop-opacity:0"/>
				<stop  offset="0.1974" style="stop-color:#FFFFFF;stop-opacity:5.000000e-02"/>
				<stop  offset="0.9949" style="stop-color:#FFFFFF"/>
			</linearGradient>
			<path style="fill:url(#SVGID_00000113352496643453959100000008922460260880490131_);" d="M102.4,62c0-11.9-5.1-22.6-13.1-30.2
				l-1.5,1.6c7.7,7.1,12.5,17.3,12.5,28.6c0,21.5-17.5,39.1-39.1,39.1c-10.3,0-19.6-4-26.6-10.5l-1.5,1.6
				c7.4,6.9,17.2,11.1,28.1,11.1C84,103.2,102.4,84.8,102.4,62z"/>
		</g>
	</g>
</g>
</svg>
