<?xml version="1.0" encoding="utf-8"?>
<!-- Generator: Adobe Illustrator 26.0.3, SVG Export Plug-In . SVG Version: 6.00 Build 0)  -->
<svg version="1.1" id="White_Logo__x2B__Wordmark" xmlns="http://www.w3.org/2000/svg" xmlns:xlink="http://www.w3.org/1999/xlink"
	 x="0px" y="0px" viewBox="0 0 128 124" style="enable-background:new 0 0 499.8 124;" xml:space="preserve">

	<g>
		<g>
			<linearGradient id="SVGID_1_" gradientUnits="userSpaceOnUse" x1="0.1927" y1="53.8182" x2="102.7558" y2="53.8182">
				<stop  offset="5.128019e-03" style="stop-color:#FFFFFF"/>
				<stop  offset="0.8026" style="stop-color:#FFFFFF;stop-opacity:5.000000e-02"/>
				<stop  offset="1" style="stop-color:#FFFFFF;stop-opacity:0"/>
			</linearGradient>
			<path class="st1" d="M2.4,62c0-32.4,26.4-58.8,58.8-58.8c15.5,0,29.6,6,40.1,15.8l1.5-1.6C91.9,7.2,77.3,1,61.2,1
				c-33.7,0-61,27.3-61,61c0,17.6,7.5,33.5,19.4,44.6l1.5-1.6C9.6,94.3,2.4,79,2.4,62z"/>

				<linearGradient id="SVGID_00000085237475897980972420000006921607700096799877_" gradientUnits="userSpaceOnUse" x1="9.4653" y1="55.0618" x2="96.4388" y2="55.0618">
				<stop  offset="5.128019e-03" style="stop-color:#FFFFFF"/>
				<stop  offset="0.8026" style="stop-color:#FFFFFF;stop-opacity:5.000000e-02"/>
				<stop  offset="1" style="stop-color:#FFFFFF;stop-opacity:0"/>
			</linearGradient>
			<path style="fill:url(#SVGID_00000085237475897980972420000006921607700096799877_);" d="M11.6,62c0-27.3,22.2-49.6,49.6-49.6
				c13,0,24.9,5.1,33.8,13.3l1.5-1.6c-9.2-8.6-21.6-13.9-35.2-13.9C32.6,10.3,9.5,33.4,9.5,62c0,14.9,6.3,28.4,16.5,37.9l1.5-1.6
				C17.7,89.2,11.6,76.3,11.6,62z"/>

				<linearGradient id="SVGID_00000091729740208045522880000001178536128437880709_" gradientUnits="userSpaceOnUse" x1="19.958" y1="56.4691" x2="89.2908" y2="56.4691">
				<stop  offset="5.128019e-03" style="stop-color:#FFFFFF"/>
				<stop  offset="0.8026" style="stop-color:#FFFFFF;stop-opacity:5.000000e-02"/>
				<stop  offset="1" style="stop-color:#FFFFFF;stop-opacity:0"/>
			</linearGradient>
			<path style="fill:url(#SVGID_00000091729740208045522880000001178536128437880709_);" d="M22.1,62c0-21.5,17.5-39.1,39.1-39.1
				c10.3,0,19.6,4,26.6,10.5l1.5-1.6C81.9,25,72.1,20.8,61.2,20.8C38.4,20.8,20,39.2,20,62c0,11.9,5.1,22.6,13.1,30.2l1.5-1.6
				C26.9,83.4,22.1,73.3,22.1,62z"/>
		</g>
		<g>

				<linearGradient id="SVGID_00000054971360540196953270000013143337945896807326_" gradientUnits="userSpaceOnUse" x1="19.6381" y1="70.1818" x2="122.201" y2="70.1818">
				<stop  offset="0" style="stop-color:#FFFFFF;stop-opacity:0"/>
				<stop  offset="0.1974" style="stop-color:#FFFFFF;stop-opacity:5.000000e-02"/>
				<stop  offset="0.9949" style="stop-color:#FFFFFF"/>
			</linearGradient>
			<path style="fill:url(#SVGID_00000054971360540196953270000013143337945896807326_);" d="M102.8,17.4l-1.5,1.6
				C112.8,29.7,120,45,120,62c0,32.4-26.4,58.8-58.8,58.8c-15.5,0-29.6-6-40.1-15.8l-1.5,1.6C30.5,116.8,45.1,123,61.2,123
				c33.7,0,61-27.3,61-61C122.2,44.4,114.7,28.5,102.8,17.4z"/>

				<linearGradient id="SVGID_00000098913222527153939880000017737765954751693715_" gradientUnits="userSpaceOnUse" x1="25.9551" y1="68.9382" x2="112.9284" y2="68.9382">
				<stop  offset="0" style="stop-color:#FFFFFF;stop-opacity:0"/>
				<stop  offset="0.1974" style="stop-color:#FFFFFF;stop-opacity:5.000000e-02"/>
				<stop  offset="0.9949" style="stop-color:#FFFFFF"/>
			</linearGradient>
			<path style="fill:url(#SVGID_00000098913222527153939880000017737765954751693715_);" d="M112.9,62c0-14.9-6.3-28.4-16.5-37.9
				l-1.5,1.6c9.7,9.1,15.8,22,15.8,36.3c0,27.3-22.2,49.6-49.6,49.6c-13,0-24.9-5.1-33.8-13.3L26,99.9c9.2,8.6,21.6,13.9,35.2,13.9
				C89.8,113.7,112.9,90.6,112.9,62z"/>

				<linearGradient id="SVGID_00000113352496643453959100000008922460260880490131_" gradientUnits="userSpaceOnUse" x1="33.1031" y1="67.5309" x2="102.4357" y2="67.5309">
				<stop  offset="0" style="stop-color:#FFFFFF;stop-opacity:0"/>
				<stop  offset="0.1974" style="stop-color:#FFFFFF;stop-opacity:5.000000e-02"/>
				<stop  offset="0.9949" style="stop-color:#FFFFFF"/>
			</linearGradient>
			<path style="fill:url(#SVGID_00000113352496643453959100000008922460260880490131_);" d="M102.4,62c0-11.9-5.1-22.6-13.1-30.2
				l-1.5,1.6c7.7,7.1,12.5,17.3,12.5,28.6c0,21.5-17.5,39.1-39.1,39.1c-10.3,0-19.6-4-26.6-10.5l-1.5,1.6
				c7.4,6.9,17.2,11.1,28.1,11.1C84,103.2,102.4,84.8,102.4,62z"/>
		</g>
	</g>
</svg>
